SRRun01_grf
version=1
nRows=24
nColumns=19
inDegrees=no
endheader
time	ground_force_r_vx	ground_force_r_vy	ground_force_r_vz	ground_force_r_px	ground_force_r_py	ground_force_r_pz	ground_force_r_mx	ground_force_r_my	ground_force_r_mz	ground_force_l_vx	ground_force_l_vy	ground_force_l_vz	ground_force_l_px	ground_force_l_py	ground_force_l_pz	ground_force_l_mx	ground_force_l_my	ground_force_l_mz
    147.49900000	   -112.37832663	   1406.64499419	    -72.55231891	      1.09340829	      0.00000000	     -0.24691137	      0.00001517	    -18.46108087	      0.00006291	      0.00000000	      0.00000000	      0.00000000	      0.00000000	      0.00000000	      0.00000000	      0.00000000	      0.00000000	      0.00000000
    147.50000000	   -112.45813653	   1404.46410788	    -56.64134082	      1.09075344	      0.00000000	     -0.24592451	      0.00001505	    -11.12759618	      0.00006070	      0.00000000	      0.00000000	      0.00000000	      0.00000000	      0.00000000	      0.00000000	      0.00000000	      0.00000000	      0.00000000
    147.50100000	   -111.97920654	   1402.44983658	    -40.59452459	      1.08798068	      0.00000000	     -0.24489941	      0.00001492	     -3.09069984	      0.00005832	      0.00000000	      0.00000000	      0.00000000	      0.00000000	      0.00000000	      0.00000000	      0.00000000	      0.00000000	      0.00000000
    147.50200000	   -110.73132930	   1400.80057815	    -25.36137412	      1.08511181	      0.00000000	     -0.24389328	      0.00001480	      4.94325907	      0.00005591	      0.00000000	      0.00000000	      0.00000000	      0.00000000	      0.00000000	      0.00000000	      0.00000000	      0.00000000	      0.00000000
    147.50300000	   -108.58839495	   1399.69146126	    -11.83603189	      1.08218150	      0.00000000	     -0.24296151	      0.00001472	     12.26293031	      0.00005359	      0.00000000	      0.00000000	      0.00000000	      0.00000000	      0.00000000	      0.00000000	      0.00000000	      0.00000000	      0.00000000
    147.50400000	   -105.51049474	   1399.25950151	     -0.80918411	      1.07923598	      0.00000000	     -0.24215406	      0.00001470	     18.21527663	      0.00005149	      0.00000000	      0.00000000	      0.00000000	      0.00000000	      0.00000000	      0.00000000	      0.00000000	      0.00000000	      0.00000000
    147.50500000	   -101.53823937	   1399.59125086	      7.07445004	      1.07632869	      0.00000000	     -0.24151242	      0.00001475	     22.26419854	      0.00004973	      0.00000000	      0.00000000	      0.00000000	      0.00000000	      0.00000000	      0.00000000	      0.00000000	      0.00000000	      0.00000000
    147.50600000	    -96.78060166	   1400.71461923	     11.35083434	      1.07351371	      0.00000000	     -0.24106708	      0.00001489	     24.03931425	      0.00004840	      0.00000000	      0.00000000	      0.00000000	      0.00000000	      0.00000000	      0.00000000	      0.00000000	      0.00000000	      0.00000000
    147.50700000	    -91.39787186	   1402.59588461	     11.76166752	      1.07083823	      0.00000000	     -0.24083591	      0.00001514	     23.37040521	      0.00004756	      0.00000000	      0.00000000	      0.00000000	      0.00000000	      0.00000000	      0.00000000	      0.00000000	      0.00000000	      0.00000000
    147.50800000	    -85.58158366	   1405.14220014	      8.26843889	      1.06833569	      0.00000000	     -0.24082319	      0.00001550	     20.30412637	      0.00004722	      0.00000000	      0.00000000	      0.00000000	      0.00000000	      0.00000000	      0.00000000	      0.00000000	      0.00000000	      0.00000000
    147.50900000	    -79.53358220	   1408.20925448	      1.05466350	      1.06602114	      0.00000000	     -0.24101939	      0.00001596	     15.10118107	      0.00004738	      0.00000000	      0.00000000	      0.00000000	      0.00000000	      0.00000000	      0.00000000	      0.00000000	      0.00000000	      0.00000000
    147.51000000	    -73.44655173	   1411.61308493	     -9.48407080	      1.06388971	      0.00000000	     -0.24140183	      0.00001651	      8.21407950	      0.00004799	      0.00000000	      0.00000000	      0.00000000	      0.00000000	      0.00000000	      0.00000000	      0.00000000	      0.00000000	      0.00000000
    147.51100000	    -67.48808407	   1415.14446800	    -22.76207714	      1.06191836	      0.00000000	     -0.24193610	      0.00001713	      0.24743861	      0.00004901	      0.00000000	      0.00000000	      0.00000000	      0.00000000	      0.00000000	      0.00000000	      0.00000000	      0.00000000	      0.00000000
    147.51200000	    -61.78977403	   1418.58406652	    -38.03675719	      1.06007069	      0.00000000	     -0.24257843	      0.00001777	     -8.09568782	      0.00005033	      0.00000000	      0.00000000	      0.00000000	      0.00000000	      0.00000000	      0.00000000	      0.00000000	      0.00000000	      0.00000000
    147.51300000	    -56.44209999	   1421.71667457	    -54.45153794	      1.05830339	      0.00000000	     -0.24327872	      0.00001839	    -16.07670074	      0.00005183	      0.00000000	      0.00000000	      0.00000000	      0.00000000	      0.00000000	      0.00000000	      0.00000000	      0.00000000	      0.00000000
    147.51400000	    -51.49512695	   1424.34329763	    -71.08642336	      1.05657305	      0.00000000	     -0.24398410	      0.00001895	    -22.98784929	      0.00005340	      0.00000000	      0.00000000	      0.00000000	      0.00000000	      0.00000000	      0.00000000	      0.00000000	      0.00000000	      0.00000000
    147.51500000	    -46.96430604	   1426.29032207	    -87.01326856	      1.05484184	      0.00000000	     -0.24464278	      0.00001940	    -28.21596816	      0.00005488	      0.00000000	      0.00000000	      0.00000000	      0.00000000	      0.00000000	      0.00000000	      0.00000000	      0.00000000	      0.00000000
    147.51600000	    -42.83984056	   1427.41564565	   -101.35215242	      1.05308077	      0.00000000	     -0.24520771	      0.00001971	    -31.29765736	      0.00005613	      0.00000000	      0.00000000	      0.00000000	      0.00000000	      0.00000000	      0.00000000	      0.00000000	      0.00000000	      0.00000000
    147.51700000	    -39.09743963	   1427.61228060	   -113.32490225	      1.05127029	      0.00000000	     -0.24563989	      0.00001985	    -31.96080480	      0.00005705	      0.00000000	      0.00000000	      0.00000000	      0.00000000	      0.00000000	      0.00000000	      0.00000000	      0.00000000	      0.00000000
    147.51800000	    -35.70805987	   1426.81044510	   -122.30213016	      1.04939865	      0.00000000	     -0.24591088	      0.00001983	    -30.14852492	      0.00005756	      0.00000000	      0.00000000	      0.00000000	      0.00000000	      0.00000000	      0.00000000	      0.00000000	      0.00000000	      0.00000000
    147.51900000	    -32.64455845	   1424.97920987	   -127.84078612	      1.04745904	      0.00000000	     -0.24600464	      0.00001964	    -26.02318243	      0.00005762	      0.00000000	      0.00000000	      0.00000000	      0.00000000	      0.00000000	      0.00000000	      0.00000000	      0.00000000	      0.00000000
    147.52000000	    -29.88393472	   1422.12813523	   -129.70979009	      1.04544703	      0.00000000	     -0.24591845	      0.00001932	    -19.95016678	      0.00005726	      0.00000000	      0.00000000	      0.00000000	      0.00000000	      0.00000000	      0.00000000	      0.00000000	      0.00000000	      0.00000000
    147.52100000	    -27.40484559	   1418.30834031	   -127.90179843	      1.04335908	      0.00000000	     -0.24566301	      0.00001890	    -12.46314777	      0.00005657	      0.00000000	      0.00000000	      0.00000000	      0.00000000	      0.00000000	      0.00000000	      0.00000000	      0.00000000	      0.00000000
    147.52200000	    -25.18119965	   1413.61179926	   -122.62998800	      1.04119258	      0.00000000	     -0.24526141	      0.00001842	     -4.21431234	      0.00005566	      0.00000000	      0.00000000	      0.00000000	      0.00000000	      0.00000000	      0.00000000	      0.00000000	      0.00000000	      0.00000000
